<svg width="47" height="51" viewBox="0 0 47 51" fill="none" xmlns="http://www.w3.org/2000/svg">
<path d="M33.5392 1.44134C34.4326 0.338058 36.0599 0.160416 37.0837 1.14399C39.2432 3.21887 41.0848 5.60341 42.541 8.2175C44.4131 11.5783 45.6115 15.2526 46.0678 19.0308C46.5241 22.809 46.2293 26.617 45.2003 30.2374C44.1713 33.8578 42.4282 37.2197 40.0705 40.1311C37.7129 43.0425 34.7869 45.4465 31.4596 47.2057C28.1322 48.965 24.4687 50.0451 20.6782 50.3843C16.8878 50.7235 13.0445 50.3152 9.36797 49.1828C6.50825 48.3019 3.79293 46.9964 1.31438 45.3154C0.139464 44.5185 -0.0251234 42.8898 0.868294 41.7865L33.5392 1.44134Z" fill="#EF757A"/>
<path d="M33.388 5.04504C34.1125 4.15039 35.3901 4.04328 36.158 4.80387C40.2689 8.87591 42.8722 14.2618 43.4824 20.0673C44.1808 26.7117 42.211 33.3615 38.0065 38.5536C33.802 43.7458 27.7071 47.0551 21.0626 47.7534C15.2572 48.3636 9.44773 46.937 4.60996 43.7626C3.70635 43.1696 3.54547 41.8976 4.26994 41.003L15.9408 26.5906C16.1879 26.2854 16.5702 26.0997 17.0824 25.9817C17.4844 25.8891 17.9078 25.8492 18.3498 25.8075C18.4822 25.7951 18.6162 25.7824 18.7518 25.7682C19.5655 25.6826 20.3118 25.2774 20.8266 24.6417C21.3414 24.0059 21.5826 23.1916 21.4971 22.378C21.4829 22.2424 21.4674 22.1086 21.452 21.9766C21.4009 21.5356 21.3519 21.1131 21.3589 20.7006C21.3678 20.1751 21.47 19.7626 21.7171 19.4574L33.388 5.04504Z" fill="#E86666" stroke="#FFD2A5" stroke-width="1.0282"/>
<path d="M33.2097 19.4437C34.1857 19.5789 34.9098 20.1725 34.7541 21.297C34.5984 22.4216 33.7401 22.796 32.7641 22.6609C32.1034 22.5694 30.9654 21.6604 30.2991 21.0828C30.0348 20.8537 30.092 20.4412 30.4085 20.2925C31.2067 19.9177 32.5489 19.3522 33.2097 19.4437Z" fill="#FFD2A5"/>
<path d="M29.3295 29.2867C30.0773 29.9282 30.3653 30.8192 29.6261 31.6808C28.8868 32.5424 27.9624 32.3932 27.2146 31.7516C26.7084 31.3173 26.2428 29.9372 25.9949 29.091C25.8966 28.7553 26.1677 28.4393 26.5144 28.4855C27.3885 28.6019 28.8233 28.8523 29.3295 29.2867Z" fill="#FFD2A5"/>
<path d="M21.5768 36.9019C21.7547 37.871 21.4182 38.7449 20.3016 38.9498C19.1849 39.1547 18.5601 38.4572 18.3823 37.4881C18.2619 36.832 18.768 35.4663 19.1075 34.6524C19.2421 34.3296 19.6517 34.2545 19.8921 34.5084C20.4985 35.1487 21.4564 36.2458 21.5768 36.9019Z" fill="#FFD2A5"/>
</svg>
