<svg width="45" height="44" viewBox="0 0 45 44" fill="none" xmlns="http://www.w3.org/2000/svg">
<path d="M20.4377 1.06087C21.4487 -0.353623 23.5513 -0.353623 24.5623 1.06087L31.1424 10.2663C31.4615 10.7128 31.9169 11.0436 32.4401 11.2091L43.2283 14.6225C44.8861 15.147 45.5358 17.1466 44.5029 18.5453L37.7814 27.648C37.4554 28.0894 37.2815 28.6247 37.2857 29.1735L37.3732 40.4885C37.3866 42.2272 35.6856 43.463 34.0362 42.9129L23.302 39.3332C22.7814 39.1596 22.2186 39.1596 21.698 39.3332L10.9638 42.9129C9.31437 43.463 7.6134 42.2272 7.62684 40.4885L7.71427 29.1735C7.71851 28.6247 7.54459 28.0894 7.21863 27.648L0.49706 18.5453C-0.535762 17.1466 0.11395 15.147 1.77166 14.6225L12.5599 11.2091C13.0831 11.0436 13.5385 10.7128 13.8576 10.2663L20.4377 1.06087Z" fill="#FFDC6D"/>
</svg>
