<svg width="46" height="48" viewBox="0 0 46 48" fill="none" xmlns="http://www.w3.org/2000/svg">
<path d="M42.8465 0C44.5034 0 45.8558 1.34442 45.7575 2.99835C45.1634 12.9879 41.6119 22.6012 35.5212 30.5981C29.4305 38.595 21.1068 44.5738 11.6343 47.8013C10.066 48.3356 8.41053 47.3891 7.9702 45.7918L0.107653 17.2708C-0.332676 15.6736 0.626082 14.0475 2.10317 13.2969C4.09376 12.2854 5.84369 10.8337 7.21202 9.0371C8.58035 7.24051 9.51477 5.1677 9.96089 2.97987C10.2919 1.35643 11.6047 0 13.2616 0H42.8465Z" fill="#FFDC6D"/>
<path d="M15.3987 22.3033L12.3321 14.9171" stroke="#EEC160" stroke-width="1.13102" stroke-linecap="round"/>
<path d="M24.2354 12.3131L16.8441 9.25859" stroke="#EEC160" stroke-width="1.13102" stroke-linecap="round"/>
</svg>
