<svg width="46" height="60" viewBox="0 0 46 60" fill="none" xmlns="http://www.w3.org/2000/svg">
<path d="M44.3196 36.7029C39.7661 52.0534 26.4983 61.6567 14.6851 58.1525C2.87187 54.6483 -3.0133 39.3635 1.54017 24.013C6.09365 8.66255 19.3615 -0.940767 31.1747 2.56343C42.9879 6.06763 48.8731 21.3524 44.3196 36.7029Z" fill="#A3D56E"/>
<path d="M36.5403 15.3394C37.8784 16.7518 40.287 20.8701 39.2165 26.0439" stroke="white" stroke-width="2.23012" stroke-linecap="round"/>
<circle cx="38.1014" cy="30.2813" r="1.56109" fill="white"/>
<circle cx="31.9929" cy="3.65546" r="3.65546" fill="#A3D56E"/>
<circle cx="14.5979" cy="56.3444" r="3.65546" fill="#A3D56E"/>
<path d="M20.7016 23.9395C18.5842 25.0395 12.9149 26.4867 7.1773 23.4757" stroke="#2A2A2A" stroke-width="2.4" stroke-linecap="round"/>
<circle cx="9.90209" cy="19.6" r="1.2" fill="#2A2A2A"/>
<path d="M16.702 19.6L14.377 20.1516" stroke="#2A2A2A" stroke-width="1.6" stroke-linecap="round"/>
</svg>
