<svg width="47" height="51" viewBox="0 0 47 51" fill="none" xmlns="http://www.w3.org/2000/svg">
<path d="M32.7436 2.63372C34.3555 0.643199 37.3094 0.315114 39.0201 2.22137C40.5402 3.91526 41.8608 5.78494 42.9518 7.7944C44.7826 11.1663 45.9314 14.8658 46.3324 18.6817C46.7335 22.4976 46.379 26.355 45.2893 30.0339C44.1996 33.7128 42.3959 37.141 39.9813 40.1228C37.5667 43.1047 34.5884 45.5817 31.2164 47.4125C27.8445 49.2433 24.145 50.392 20.3292 50.7931C16.5133 51.1941 12.6558 50.8397 8.97691 49.7499C6.78452 49.1005 4.68114 48.1976 2.70821 47.0628C0.487933 45.7858 0.194699 42.8283 1.80659 40.8378L12.9341 27.0964C13.6101 26.2616 14.8385 26.1796 15.8684 26.4847C16.492 26.6694 17.146 26.7295 17.7928 26.6615C18.4397 26.5935 19.0668 26.3988 19.6384 26.0884C20.21 25.7781 20.7149 25.3582 21.1242 24.8527C21.5335 24.3472 21.8393 23.7661 22.024 23.1424C22.2087 22.5188 22.2688 21.8649 22.2008 21.218C22.1329 20.5712 21.9381 19.944 21.6278 19.3724C21.1152 18.4284 20.9401 17.2099 21.6161 16.3751L32.7436 2.63372Z" fill="#B6DD8B"/>
<path d="M21.4789 37.1687L20.7035 29.7913" stroke="#FFEDB4" stroke-width="1.04907" stroke-linecap="round"/>
<path d="M32.7023 23.3091L25.3249 24.0845" stroke="#FFEDB4" stroke-width="1.04907" stroke-linecap="round"/>
<path d="M28.7791 31.6062L23.0142 26.9379" stroke="#FFEDB4" stroke-width="1.04907" stroke-linecap="round"/>
</svg>
