<svg width="79" height="90" viewBox="0 0 79 90" fill="none" xmlns="http://www.w3.org/2000/svg">
<circle cx="39.4809" cy="50.519" r="39.4809" fill="#E86666"/>
<path d="M50.9705 3.57727C56.6743 0.284162 61.9335 -1.28507 63.4095 1.27138C64.8854 3.82784 60.8968 7.59779 55.193 10.8909C51.1264 13.2388 42.2307 15.8963 37.459 17.2284C36.563 17.4785 35.9504 16.4175 36.615 15.7666C40.1545 12.3003 46.9039 5.92515 50.9705 3.57727Z" fill="#72B789"/>
<path d="M63.1694 32.3579C65.5383 34.8584 69.8022 42.1492 67.9071 51.3088" stroke="white" stroke-width="3.94809" stroke-linecap="round"/>
<circle cx="65.9331" cy="58.8101" r="2.76367" fill="white"/>
<path d="M30.5964 44.9147C27.6188 46.4615 19.6464 48.4967 11.5778 44.2626" stroke="#2A2A2A" stroke-width="3.375" stroke-linecap="round"/>
<circle cx="15.4096" cy="38.8125" r="1.6875" fill="#2A2A2A"/>
<circle cx="26.6596" cy="38.8125" r="1.6875" fill="#2A2A2A"/>
</svg>
