<svg width="46" height="51" viewBox="0 0 46 51" fill="none" xmlns="http://www.w3.org/2000/svg">
<path d="M33.2403 1.44134C34.1338 0.338058 35.7611 0.160416 36.7848 1.14399C38.9444 3.21887 40.786 5.60341 42.2422 8.2175C44.1143 11.5783 45.3127 15.2526 45.7689 19.0308C46.2252 22.809 45.9304 26.617 44.9014 30.2374C43.8724 33.8578 42.1294 37.2197 39.7717 40.1311C37.4141 43.0425 34.4881 45.4465 31.1607 47.2057C27.8334 48.965 24.1699 50.0451 20.3794 50.3843C16.5889 50.7235 12.7457 50.3152 9.06914 49.1828C6.20942 48.3019 3.4941 46.9964 1.01556 45.3154C-0.159364 44.5185 -0.323951 42.8898 0.569465 41.7865L33.2403 1.44134Z" fill="#B6DD8B"/>
<path d="M33.0892 5.04516C33.8136 4.15052 35.0913 4.04341 35.8592 4.80399C39.9701 8.87604 42.5734 14.262 43.1836 20.0674C43.8819 26.7118 41.9122 33.3616 37.7077 38.5537C33.5032 43.7459 27.4083 47.0552 20.7638 47.7536C14.9584 48.3638 9.1489 46.9371 4.31113 43.7627C3.40752 43.1698 3.24664 41.8978 3.97111 41.0031L15.642 26.5907C15.8891 26.2855 16.2713 26.0998 16.7836 25.9818C17.1855 25.8892 17.609 25.8493 18.0509 25.8077C18.1833 25.7952 18.3174 25.7825 18.453 25.7683C19.2666 25.6828 20.0129 25.2776 20.5278 24.6418C21.0426 24.006 21.2838 23.1917 21.1983 22.3781C21.184 22.2425 21.1685 22.1088 21.1532 21.9767C21.1021 21.5357 21.0531 21.1132 21.0601 20.7008C21.069 20.1752 21.1712 19.7627 21.4183 19.4575L33.0892 5.04516Z" fill="#A5D372" stroke="#FFFAF5" stroke-width="1.0282"/>
<path d="M20.9976 36.2892L20.2376 29.0585" stroke="white" stroke-width="1.0282" stroke-linecap="round"/>
<path d="M31.9978 22.7052L24.7671 23.4652" stroke="white" stroke-width="1.0282" stroke-linecap="round"/>
<path d="M28.1526 30.8374L22.5023 26.2619" stroke="white" stroke-width="1.0282" stroke-linecap="round"/>
</svg>
