<svg width="46" height="51" viewBox="0 0 46 51" fill="none" xmlns="http://www.w3.org/2000/svg">
<path d="M32.02 1.48615C32.8745 0.369212 34.4812 0.14884 35.5218 1.09485C37.717 3.0905 39.6058 5.40148 41.1192 7.95031C43.0649 11.2272 44.352 14.833 44.9071 18.5619C45.4621 22.2908 45.2743 26.0697 44.3542 29.6829C43.4342 33.2961 41.7999 36.6729 39.5448 39.6204C37.2897 42.5678 34.4579 45.0283 31.211 46.8613C27.9642 48.6944 24.3659 49.864 20.6217 50.3035C16.8774 50.7429 13.0605 50.4437 9.38879 49.4227C6.53288 48.6286 3.80835 47.4099 1.30803 45.813C0.122791 45.0561 -0.0846933 43.4477 0.769871 42.3308L32.02 1.48615Z" fill="#A5D372"/>
<path d="M31.7598 1.74679C32.6144 0.629854 34.2228 0.408391 35.2489 1.37019C37.0614 3.06923 38.6189 5.02757 39.8687 7.18521C41.5448 10.0789 42.6345 13.2743 43.0756 16.5891C43.5167 19.9039 43.3007 23.2731 42.4397 26.5044C41.5788 29.7357 40.0898 32.7657 38.0578 35.4216C36.0258 38.0774 33.4907 40.307 30.597 41.9831C27.7034 43.6592 24.5079 44.7489 21.1931 45.19C17.8783 45.6312 14.5091 45.4151 11.2778 44.5541C8.86844 43.9122 6.57092 42.921 4.45699 41.616C3.26032 40.8772 3.05341 39.2668 3.90797 38.1498L31.7598 1.74679Z" fill="#FFFAF5"/>
<path d="M22.6818 25.2077C23.0694 26.3401 22.9231 27.4157 21.8531 27.782C20.7832 28.1483 20.0084 27.388 19.6207 26.2556C19.3622 25.5004 19.5611 23.8597 19.7222 22.8505C19.7834 22.4672 20.2315 22.3138 20.5148 22.5792C21.2606 23.2779 22.4232 24.4525 22.6818 25.2077Z" fill="#403837"/>
<path d="M25.0797 20.5564C26.2275 20.8955 27.0201 21.6372 26.6997 22.7218C26.3793 23.8065 25.3109 23.9984 24.163 23.6593C23.3975 23.4332 22.1745 22.3216 21.4446 21.6062C21.1674 21.3345 21.3016 20.8803 21.682 20.8028C22.6834 20.5988 24.3141 20.3303 25.0797 20.5564Z" fill="#403837"/>
</svg>
