<svg width="45" height="50" viewBox="0 0 45 50" fill="none" xmlns="http://www.w3.org/2000/svg">
<path d="M31.7714 0.986148C32.626 -0.130787 34.2326 -0.351161 35.2732 0.594851C37.4685 2.5905 39.3573 4.90148 40.8707 7.45031C42.8163 10.7272 44.1035 14.333 44.6585 18.0619C45.2136 21.7908 45.0257 25.5697 44.1057 29.1829C43.1856 32.7961 41.5514 36.1729 39.2963 39.1204C37.0412 42.0678 34.2093 44.5283 30.9625 46.3613C27.7157 48.1943 24.1174 49.364 20.3731 49.8035C16.6289 50.2429 12.8119 49.9437 9.14026 48.9227C6.28434 48.1286 3.55981 46.9099 1.0595 45.313C-0.125744 44.556 -0.333229 42.9477 0.521335 41.8308L31.7714 0.986148Z" fill="#E86666"/>
<path d="M31.5115 1.24667C32.3661 0.129732 33.9746 -0.0917308 35.0006 0.870072C36.8131 2.5691 38.3706 4.52745 39.6204 6.68509C41.2965 9.57874 42.3862 12.7742 42.8273 16.089C43.2685 19.4038 43.0524 22.773 42.1914 26.0043C41.3305 29.2355 39.8415 32.2656 37.8095 34.9214C35.7775 37.5773 33.2424 39.8069 30.3487 41.483C27.4551 43.159 24.2596 44.2488 20.9448 44.6899C17.63 45.131 14.2608 44.915 11.0295 44.054C8.62015 43.412 6.32262 42.4209 4.2087 41.1158C3.01203 40.377 2.80512 38.7667 3.65968 37.6497L31.5115 1.24667Z" fill="#FFFAF5"/>
<path d="M22.4334 24.7077C22.821 25.8401 22.6747 26.9157 21.6047 27.282C20.5347 27.6483 19.7599 26.888 19.3723 25.7556C19.1138 25.0004 19.3126 23.3597 19.4738 22.3505C19.535 21.9672 19.9831 21.8138 20.2664 22.0792C21.0122 22.7779 22.1748 23.9525 22.4334 24.7077Z" fill="#403837"/>
<path d="M24.8312 20.0564C25.9791 20.3955 26.7717 21.1372 26.4513 22.2218C26.1309 23.3065 25.0625 23.4984 23.9146 23.1593C23.1491 22.9332 21.926 21.8216 21.1962 21.1062C20.919 20.8345 21.0532 20.3803 21.4336 20.3028C22.435 20.0988 24.0657 19.8303 24.8312 20.0564Z" fill="#403837"/>
</svg>
