<svg width="46" height="51" viewBox="0 0 46 51" fill="none" xmlns="http://www.w3.org/2000/svg">
<path d="M31.9582 2.63372C33.5701 0.643199 36.524 0.315114 38.2347 2.22137C39.7548 3.91526 41.0754 5.78494 42.1664 7.7944C43.9972 11.1663 45.146 14.8658 45.547 18.6817C45.9481 22.4976 45.5936 26.355 44.5039 30.0339C43.4142 33.7128 41.6105 37.141 39.1959 40.1228C36.7812 43.1047 33.803 45.5817 30.431 47.4125C27.0591 49.2433 23.3596 50.392 19.5438 50.7931C15.7279 51.1941 11.8704 50.8397 8.19151 49.7499C5.99912 49.1005 3.89574 48.1976 1.92281 47.0628C-0.297467 45.7858 -0.590702 42.8283 1.02119 40.8378L12.1487 27.0964C12.8247 26.2616 14.0531 26.1796 15.083 26.4847C15.7066 26.6694 16.3606 26.7295 17.0074 26.6615C17.6543 26.5935 18.2814 26.3988 18.853 26.0884C19.4246 25.7781 19.9295 25.3582 20.3388 24.8527C20.7481 24.3472 21.0539 23.7661 21.2386 23.1424C21.4233 22.5188 21.4834 21.8649 21.4154 21.218C21.3475 20.5712 21.1527 19.944 20.8424 19.3724C20.3298 18.4284 20.1547 17.2099 20.8307 16.3751L31.9582 2.63372Z" fill="#FFD5D5"/>
<path d="M20.6935 37.1687L19.9181 29.7913" stroke="#EF757A" stroke-width="1.04907" stroke-linecap="round"/>
<path d="M31.9169 23.3091L24.5395 24.0845" stroke="#EF757A" stroke-width="1.04907" stroke-linecap="round"/>
<path d="M27.9937 31.6062L22.2288 26.9379" stroke="#EF757A" stroke-width="1.04907" stroke-linecap="round"/>
</svg>
