<svg width="71" height="68" viewBox="0 0 71 68" fill="none" xmlns="http://www.w3.org/2000/svg">
<path d="M32.2483 1.67394C33.8437 -0.557976 37.1612 -0.55798 38.7566 1.67393L49.1392 16.1991C49.6428 16.9035 50.3612 17.4255 51.1868 17.6867L68.2094 23.0727C70.8251 23.9003 71.8503 27.0554 70.2206 29.2624L59.6147 43.6254C59.1004 44.322 58.826 45.1666 58.8327 46.0324L58.9706 63.8863C58.9918 66.6297 56.3079 68.5797 53.7053 67.7118L36.7679 62.0634C35.9465 61.7895 35.0584 61.7895 34.237 62.0634L17.2996 67.7118C14.697 68.5797 12.0131 66.6297 12.0343 63.8863L12.1722 46.0324C12.1789 45.1666 11.9045 44.322 11.3902 43.6254L0.784305 29.2624C-0.845371 27.0554 0.179798 23.9003 2.79547 23.0727L19.8182 17.6867C20.6437 17.4255 21.3622 16.9035 21.8657 16.1991L32.2483 1.67394Z" fill="#FFDC6D"/>
<path d="M42.8187 28.1532C40.4366 29.3907 34.0587 31.0189 27.6039 27.6315" stroke="#2A2A2A" stroke-width="2.7" stroke-linecap="round"/>
<circle cx="30.6693" cy="23.2715" r="1.35" fill="#2A2A2A"/>
<circle cx="39.6693" cy="23.2715" r="1.35" fill="#2A2A2A"/>
</svg>
