<svg width="40" height="50" viewBox="0 0 40 50" fill="none" xmlns="http://www.w3.org/2000/svg">
<path d="M18.6421 0.627666C19.0438 -0.209222 20.2354 -0.209222 20.6371 0.627665L23.3751 6.33186C23.5592 6.71549 23.9471 6.95952 24.3726 6.95952H31.9827C33.1542 6.95952 33.5223 8.54184 32.4711 9.05886L27.1547 11.6735C26.61 11.9414 26.3828 12.598 26.6455 13.1452L28.8242 17.6842C29.2788 18.6314 28.2812 19.6196 27.3384 19.1559L20.1279 15.6097C19.82 15.4582 19.4592 15.4582 19.1513 15.6097L11.9409 19.1559C10.9981 19.6196 10.0004 18.6314 10.4551 17.6842L12.6338 13.1452C12.8964 12.598 12.6692 11.9414 12.1246 11.6735L6.8082 9.05886C5.75695 8.54184 6.125 6.95952 7.29651 6.95952H14.9066C15.3322 6.95952 15.72 6.71549 15.9041 6.33186L18.6421 0.627666Z" fill="#A5D372"/>
<circle cx="19.6397" cy="30.3604" r="19.6397" fill="#E86666"/>
<path d="M18.8901 25.5414C17.2428 26.3972 12.8323 27.5231 8.36849 25.1806" stroke="#2A2A2A" stroke-width="1.86715" stroke-linecap="round"/>
<circle cx="10.4883" cy="22.1656" r="0.933577" fill="#2A2A2A"/>
<circle cx="16.7123" cy="22.1656" r="0.933577" fill="#2A2A2A"/>
<path d="M31.5341 22.1293C32.8446 23.5126 35.2036 27.5461 34.1552 32.6135" stroke="white" stroke-width="2.18421" stroke-linecap="round"/>
<circle cx="33.0631" cy="36.7634" r="1.52895" fill="white"/>
</svg>
