<svg width="79" height="55" viewBox="0 0 79 55" fill="none" xmlns="http://www.w3.org/2000/svg">
<ellipse cx="39.434" cy="29.5755" rx="39.434" ry="25.4245" fill="#FFC6C6"/>
<path d="M16.0869 18.7435C18.176 16.4597 24.4371 12.1697 32.7687 13.2801" stroke="white" stroke-width="3.54781" stroke-linecap="round"/>
<circle cx="10.6312" cy="23.9296" r="2.48347" transform="rotate(1.96193 10.6312 23.9296)" fill="white"/>
<path d="M55.3178 3.12141C60.2948 0.24795 64.8838 -1.12131 66.1717 1.10937C67.4596 3.34005 63.9793 6.62958 59.0023 9.50304C55.4539 11.5517 47.6917 13.8706 43.5281 15.0329C42.7463 15.2512 42.2118 14.3254 42.7917 13.7575C45.8802 10.7329 51.7694 5.17009 55.3178 3.12141Z" fill="#72B789"/>
<path d="M47.7546 30.0156C45.0079 31.4425 37.6539 33.3198 30.2113 29.4141" stroke="#2A2A2A" stroke-width="3.11321" stroke-linecap="round"/>
<circle cx="33.7458" cy="24.3868" r="1.5566" fill="#2A2A2A"/>
<circle cx="44.1231" cy="24.3868" r="1.5566" fill="#2A2A2A"/>
</svg>
