<svg width="46" height="60" viewBox="0 0 46 60" fill="none" xmlns="http://www.w3.org/2000/svg">
<path fill-rule="evenodd" clip-rule="evenodd" d="M35.6484 3.65546C35.6484 3.96203 35.6107 4.25979 35.5396 4.54433C44.3618 10.111 48.2709 23.3821 44.3196 36.7028C40.1088 50.8979 28.4462 60.1784 17.3729 58.724C16.7025 59.5051 15.708 59.9999 14.5979 59.9999C12.648 59.9999 11.0546 58.4731 10.9481 56.5498C1.6854 51.2264 -2.50373 37.6456 1.54017 24.0129C5.78059 9.71781 17.5783 0.406772 28.7208 2.02405C29.3203 0.824077 30.5604 0 31.993 0C34.0118 0 35.6484 1.63661 35.6484 3.65546Z" fill="#FFDC6D"/>
<path d="M36.5403 15.3394C37.8784 16.7518 40.287 20.8701 39.2165 26.0439" stroke="white" stroke-width="2.23012" stroke-linecap="round"/>
<circle cx="38.1014" cy="30.2813" r="1.56109" fill="white"/>
<path d="M20.524 23.9395C18.4066 25.0395 12.7374 26.4867 6.99975 23.4757" stroke="#2A2A2A" stroke-width="2.4" stroke-linecap="round"/>
<circle cx="9.72447" cy="19.6" r="1.2" fill="#2A2A2A"/>
<path d="M16.5245 19.6L14.1995 20.1516" stroke="#2A2A2A" stroke-width="1.6" stroke-linecap="round"/>
</svg>
