<svg width="67" height="67" viewBox="0 0 67 67" fill="none" xmlns="http://www.w3.org/2000/svg">
<path d="M64.7486 12.1588C64.553 12.4963 64.3214 12.8 64.0616 13.068C70.2225 24.8255 66.0584 41.9304 53.2088 54.0743C39.5158 67.0154 20.7546 69.7911 9.49169 61.1245C8.25522 61.5567 6.84461 61.4669 5.62248 60.7586C3.47571 59.5144 2.69574 56.8168 3.80576 54.6314C-2.99518 42.8606 1.05824 25.2363 14.2087 12.808C27.9982 -0.224238 46.9275 -2.94741 58.1627 5.94257C59.5883 5.00394 61.4794 4.88793 63.0566 5.80201C65.2792 7.09016 66.0367 9.93619 64.7486 12.1588Z" fill="#FFDC6D"/>
<path d="M21.4863 35.1289C21.4863 34.5547 21.6868 34.0671 22.0879 33.666C22.498 33.2559 22.9902 33.0508 23.5645 33.0508H31.1523V25.4766C31.1523 24.9023 31.3529 24.4147 31.7539 24.0137C32.1549 23.6035 32.6426 23.3984 33.2168 23.3984C33.791 23.3984 34.2786 23.6035 34.6797 24.0137C35.0898 24.4147 35.2949 24.9023 35.2949 25.4766V33.0508H42.8828C43.4479 33.0508 43.931 33.2559 44.332 33.666C44.7422 34.0671 44.9473 34.5547 44.9473 35.1289C44.9473 35.7031 44.7422 36.1953 44.332 36.6055C43.931 37.0065 43.4479 37.207 42.8828 37.207H35.2949V44.7949C35.2949 45.36 35.0898 45.8431 34.6797 46.2441C34.2786 46.6543 33.791 46.8594 33.2168 46.8594C32.6426 46.8594 32.1549 46.6543 31.7539 46.2441C31.3529 45.8431 31.1523 45.36 31.1523 44.7949V37.207H23.5645C22.9902 37.207 22.498 37.0065 22.0879 36.6055C21.6868 36.1953 21.4863 35.7031 21.4863 35.1289Z" fill="white"/>
</svg>
