<svg width="47" height="51" viewBox="0 0 47 51" fill="none" xmlns="http://www.w3.org/2000/svg">
<path d="M33.5392 1.44133C34.4326 0.338057 36.0599 0.160416 37.0837 1.14399C39.2432 3.21887 41.0848 5.60341 42.541 8.2175C44.4131 11.5783 45.6115 15.2526 46.0678 19.0308C46.5241 22.809 46.2293 26.617 45.2003 30.2374C44.1713 33.8578 42.4282 37.2197 40.0705 40.1311C37.7129 43.0425 34.7869 45.4465 31.4596 47.2057C28.1322 48.965 24.4687 50.0451 20.6782 50.3843C16.8878 50.7235 13.0445 50.3152 9.36797 49.1828C6.50825 48.3019 3.79293 46.9963 1.31438 45.3153C0.139463 44.5185 -0.0251231 42.8898 0.868294 41.7865L33.5392 1.44133Z" fill="#FFE38A"/>
<path d="M33.388 5.04516C34.1125 4.15052 35.3901 4.04341 36.158 4.80399C40.2689 8.87604 42.8722 14.262 43.4824 20.0674C44.1808 26.7118 42.211 33.3616 38.0065 38.5537C33.802 43.7459 27.7071 47.0552 21.0626 47.7536C15.2572 48.3638 9.44773 46.9371 4.60996 43.7627C3.70635 43.1698 3.54547 41.8978 4.26994 41.0031L15.9408 26.5907C16.1879 26.2856 16.5702 26.0998 17.0824 25.9818C17.4844 25.8892 17.9078 25.8493 18.3498 25.8077C18.4822 25.7952 18.6162 25.7825 18.7518 25.7683C19.5655 25.6828 20.3118 25.2776 20.8266 24.6418C21.3414 24.006 21.5826 23.1918 21.4971 22.3781C21.4829 22.2425 21.4674 22.1088 21.452 21.9767C21.4009 21.5357 21.3519 21.1132 21.3589 20.7008C21.3678 20.1752 21.47 19.7627 21.7171 19.4575L33.388 5.04516Z" fill="#FFDC6D" stroke="#FFFAF5" stroke-width="1.0282"/>
<path d="M21.2964 36.2892L20.5364 29.0585" stroke="white" stroke-width="1.0282" stroke-linecap="round"/>
<path d="M32.2966 22.7052L25.066 23.4652" stroke="white" stroke-width="1.0282" stroke-linecap="round"/>
<path d="M28.4514 30.8374L22.8012 26.2619" stroke="white" stroke-width="1.0282" stroke-linecap="round"/>
</svg>
